<svg width="52" height="52" viewBox="0 0 52 52" fill="none" xmlns="http://www.w3.org/2000/svg">
<path d="M26 52C40.3594 52 52 40.3594 52 26C52 11.6406 40.3594 0 26 0C11.6406 0 0 11.6406 0 26C0 40.3594 11.6406 52 26 52Z" fill="#F6F4FC"/>
<path d="M28.0024 18H34.9999C35.5128 18 35.9355 18.4688 35.9933 19.0728L36 19.2144V27.7153C36 28.386 35.5522 28.9298 34.9999 28.9298C34.487 28.9298 34.0643 28.4609 34.0065 27.857L33.9998 27.7153L33.999 22.146L26.7061 31.0029C26.3458 31.4404 25.7789 31.4743 25.3866 31.1045L25.2923 31.0036L22.9961 28.2202L17.7074 34.6442C17.3169 35.1185 16.6837 35.1186 16.293 34.6444C15.9325 34.2067 15.9046 33.5179 16.2096 33.0414L16.2928 32.927L22.2881 25.6448C22.6483 25.2071 23.2153 25.1731 23.6077 25.543L23.7019 25.6439L25.9983 28.4275L32.5838 20.4288H28.0024C27.4895 20.4288 27.0668 19.96 27.009 19.356L27.0023 19.2144C27.0023 18.5916 27.3884 18.0783 27.8858 18.0082L28.0024 18H34.9999H28.0024Z" fill="#05BC39"/>
</svg>
