<svg width="269" height="166" viewBox="0 0 269 166" fill="none" xmlns="http://www.w3.org/2000/svg">
<path d="M3.88796 7V5.50598H0.566963L0.386963 4.99298L3.95096 0.655029H4.57196V4.91199H5.55296V5.50598H4.57196V7H3.88796ZM1.24196 4.91199H3.88796V1.66302L1.24196 4.91199ZM11.1771 6.16302C10.6851 6.79302 10.0431 7.10797 9.25106 7.10797C8.45906 7.10797 7.81706 6.796 7.32506 6.172C6.83906 5.542 6.59606 4.76798 6.59606 3.84998C6.59606 2.94398 6.84206 2.17602 7.33406 1.54602C7.83206 0.910021 8.47706 0.59198 9.26906 0.59198C10.0611 0.59198 10.7001 0.906987 11.1861 1.53699C11.6721 2.16099 11.9151 2.93198 11.9151 3.84998C11.9151 4.75598 11.6691 5.52702 11.1771 6.16302ZM7.87406 5.69501C8.23406 6.20501 8.69906 6.46002 9.26906 6.46002C9.83906 6.46002 10.2981 6.20798 10.6461 5.70398C11.0001 5.19398 11.1771 4.57598 11.1771 3.84998C11.1771 3.13598 10.9971 2.52398 10.6371 2.01398C10.2831 1.49798 9.82106 1.23999 9.25106 1.23999C8.68106 1.23999 8.21906 1.495 7.86506 2.005C7.51106 2.509 7.33406 3.12398 7.33406 3.84998C7.33406 4.56398 7.51406 5.17901 7.87406 5.69501ZM17.6107 6.16302C17.1187 6.79302 16.4767 7.10797 15.6847 7.10797C14.8927 7.10797 14.2507 6.796 13.7587 6.172C13.2727 5.542 13.0297 4.76798 13.0297 3.84998C13.0297 2.94398 13.2757 2.17602 13.7677 1.54602C14.2657 0.910021 14.9107 0.59198 15.7027 0.59198C16.4947 0.59198 17.1337 0.906987 17.6197 1.53699C18.1057 2.16099 18.3487 2.93198 18.3487 3.84998C18.3487 4.75598 18.1027 5.52702 17.6107 6.16302ZM14.3077 5.69501C14.6677 6.20501 15.1327 6.46002 15.7027 6.46002C16.2727 6.46002 16.7317 6.20798 17.0797 5.70398C17.4337 5.19398 17.6107 4.57598 17.6107 3.84998C17.6107 3.13598 17.4307 2.52398 17.0707 2.01398C16.7167 1.49798 16.2547 1.23999 15.6847 1.23999C15.1147 1.23999 14.6527 1.495 14.2987 2.005C13.9447 2.509 13.7677 3.12398 13.7677 3.84998C13.7677 4.56398 13.9477 5.17901 14.3077 5.69501Z" fill="#878E9C"/>
<path d="M2.79895 43.108C1.80895 43.108 1.02595 42.733 0.449951 41.983L0.96295 41.524C1.47295 42.148 2.08795 42.46 2.80795 42.46C3.19795 42.46 3.52495 42.346 3.78895 42.118C4.05295 41.89 4.18495 41.59 4.18495 41.218C4.18495 40.834 4.02295 40.537 3.69895 40.327C3.37495 40.111 2.94895 40.003 2.42095 40.003H2.01595L1.87195 39.58L3.86095 37.339H0.782951V36.7H4.80595V37.222L2.82595 39.418C3.42595 39.466 3.92095 39.64 4.31095 39.94C4.70695 40.234 4.90495 40.657 4.90495 41.209C4.90495 41.761 4.70095 42.217 4.29295 42.577C3.89095 42.931 3.39295 43.108 2.79895 43.108ZM10.6585 42.163C10.1665 42.793 9.52445 43.108 8.73245 43.108C7.94045 43.108 7.29845 42.796 6.80645 42.172C6.32045 41.542 6.07745 40.768 6.07745 39.85C6.07745 38.944 6.32345 38.176 6.81545 37.546C7.31345 36.91 7.95845 36.592 8.75045 36.592C9.54245 36.592 10.1814 36.907 10.6674 37.537C11.1534 38.161 11.3965 38.932 11.3965 39.85C11.3965 40.756 11.1505 41.527 10.6585 42.163ZM7.35545 41.695C7.71545 42.205 8.18045 42.46 8.75045 42.46C9.32045 42.46 9.77945 42.208 10.1274 41.704C10.4814 41.194 10.6585 40.576 10.6585 39.85C10.6585 39.136 10.4785 38.524 10.1185 38.014C9.76445 37.498 9.30245 37.24 8.73245 37.24C8.16245 37.24 7.70045 37.495 7.34645 38.005C6.99245 38.509 6.81545 39.124 6.81545 39.85C6.81545 40.564 6.99545 41.179 7.35545 41.695ZM17.092 42.163C16.6 42.793 15.958 43.108 15.166 43.108C14.374 43.108 13.7321 42.796 13.2401 42.172C12.7541 41.542 12.5111 40.768 12.5111 39.85C12.5111 38.944 12.7571 38.176 13.2491 37.546C13.7471 36.91 14.3921 36.592 15.1841 36.592C15.9761 36.592 16.6151 36.907 17.1011 37.537C17.5871 38.161 17.8301 38.932 17.8301 39.85C17.8301 40.756 17.584 41.527 17.092 42.163ZM13.7891 41.695C14.1491 42.205 14.6141 42.46 15.1841 42.46C15.7541 42.46 16.2131 42.208 16.5611 41.704C16.9151 41.194 17.092 40.576 17.092 39.85C17.092 39.136 16.9121 38.524 16.5521 38.014C16.1981 37.498 15.736 37.24 15.166 37.24C14.596 37.24 14.1341 37.495 13.7801 38.005C13.4261 38.509 13.2491 39.124 13.2491 39.85C13.2491 40.564 13.4291 41.179 13.7891 41.695Z" fill="#878E9C"/>
<path d="M0.432007 86V85.451L2.71801 83.435C3.21001 83.003 3.55201 82.643 3.74401 82.355C3.93601 82.067 4.03201 81.767 4.03201 81.455C4.03201 81.095 3.90901 80.804 3.66301 80.582C3.41701 80.36 3.11701 80.249 2.76301 80.249C2.42101 80.249 2.11801 80.336 1.85401 80.51C1.59601 80.684 1.33501 80.957 1.07101 81.329L0.549007 80.951C0.855007 80.495 1.17901 80.159 1.52101 79.943C1.86301 79.721 2.29501 79.61 2.81701 79.61C3.38101 79.61 3.84601 79.781 4.21201 80.123C4.58401 80.459 4.77001 80.888 4.77001 81.41C4.77001 81.842 4.65301 82.226 4.41901 82.562C4.18501 82.898 3.77101 83.33 3.17701 83.858L1.49401 85.352H4.83301V86H0.432007ZM10.5267 85.163C10.0347 85.793 9.39271 86.108 8.60071 86.108C7.80871 86.108 7.16671 85.796 6.67471 85.172C6.18871 84.542 5.94571 83.768 5.94571 82.85C5.94571 81.944 6.19171 81.176 6.68371 80.546C7.18171 79.91 7.82671 79.592 8.61871 79.592C9.41071 79.592 10.0497 79.907 10.5357 80.537C11.0217 81.161 11.2647 81.932 11.2647 82.85C11.2647 83.756 11.0187 84.527 10.5267 85.163ZM7.22371 84.695C7.58371 85.205 8.04871 85.46 8.61871 85.46C9.18871 85.46 9.64771 85.208 9.99571 84.704C10.3497 84.194 10.5267 83.576 10.5267 82.85C10.5267 82.136 10.3467 81.524 9.98671 81.014C9.63271 80.498 9.17071 80.24 8.60071 80.24C8.03071 80.24 7.56871 80.495 7.21471 81.005C6.86071 81.509 6.68371 82.124 6.68371 82.85C6.68371 83.564 6.86371 84.179 7.22371 84.695ZM16.9603 85.163C16.4683 85.793 15.8263 86.108 15.0343 86.108C14.2423 86.108 13.6003 85.796 13.1083 85.172C12.6223 84.542 12.3793 83.768 12.3793 82.85C12.3793 81.944 12.6253 81.176 13.1173 80.546C13.6153 79.91 14.2603 79.592 15.0523 79.592C15.8443 79.592 16.4833 79.907 16.9693 80.537C17.4553 81.161 17.6983 81.932 17.6983 82.85C17.6983 83.756 17.4523 84.527 16.9603 85.163ZM13.6573 84.695C14.0173 85.205 14.4823 85.46 15.0523 85.46C15.6223 85.46 16.0813 85.208 16.4293 84.704C16.7833 84.194 16.9603 83.576 16.9603 82.85C16.9603 82.136 16.7803 81.524 16.4203 81.014C16.0663 80.498 15.6043 80.24 15.0343 80.24C14.4643 80.24 14.0023 80.495 13.6483 81.005C13.2943 81.509 13.1173 82.124 13.1173 82.85C13.1173 83.564 13.2973 84.179 13.6573 84.695Z" fill="#878E9C"/>
<path d="M1.61095 126V120.393L0.422953 120.762L0.251953 120.186L1.79095 119.655H2.31295V126H1.61095ZM8.36455 125.163C7.87255 125.793 7.23055 126.108 6.43855 126.108C5.64655 126.108 5.00455 125.796 4.51255 125.172C4.02655 124.542 3.78355 123.768 3.78355 122.85C3.78355 121.944 4.02955 121.176 4.52155 120.546C5.01955 119.91 5.66455 119.592 6.45655 119.592C7.24855 119.592 7.88755 119.907 8.37355 120.537C8.85955 121.161 9.10255 121.932 9.10255 122.85C9.10255 123.756 8.85655 124.527 8.36455 125.163ZM5.06155 124.695C5.42155 125.205 5.88655 125.46 6.45655 125.46C7.02655 125.46 7.48555 125.208 7.83355 124.704C8.18755 124.194 8.36455 123.576 8.36455 122.85C8.36455 122.136 8.18455 121.524 7.82455 121.014C7.47055 120.498 7.00855 120.24 6.43855 120.24C5.86855 120.24 5.40655 120.495 5.05255 121.005C4.69855 121.509 4.52155 122.124 4.52155 122.85C4.52155 123.564 4.70155 124.179 5.06155 124.695ZM14.7982 125.163C14.3062 125.793 13.6642 126.108 12.8722 126.108C12.0802 126.108 11.4382 125.796 10.9462 125.172C10.4602 124.542 10.2172 123.768 10.2172 122.85C10.2172 121.944 10.4632 121.176 10.9552 120.546C11.4532 119.91 12.0982 119.592 12.8902 119.592C13.6822 119.592 14.3212 119.907 14.8072 120.537C15.2932 121.161 15.5362 121.932 15.5362 122.85C15.5362 123.756 15.2902 124.527 14.7982 125.163ZM11.4952 124.695C11.8552 125.205 12.3202 125.46 12.8902 125.46C13.4602 125.46 13.9192 125.208 14.2672 124.704C14.6212 124.194 14.7982 123.576 14.7982 122.85C14.7982 122.136 14.6182 121.524 14.2582 121.014C13.9042 120.498 13.4422 120.24 12.8722 120.24C12.3022 120.24 11.8402 120.495 11.4862 121.005C11.1322 121.509 10.9552 122.124 10.9552 122.85C10.9552 123.564 11.1352 124.179 11.4952 124.695Z" fill="#878E9C"/>
<path d="M268.5 2.5H31.5V165.5H268.5V2.5Z" stroke="#E6EBF0"/>
<path d="M31 42.5H269" stroke="#E6EBF0"/>
<path d="M65.5 166V2" stroke="#E6EBF0"/>
<path d="M99.5 166V2" stroke="#E6EBF0"/>
<path d="M133.5 166V2" stroke="#E6EBF0"/>
<path d="M167.5 166V2" stroke="#E6EBF0"/>
<path d="M202.5 166V2" stroke="#E6EBF0"/>
<path d="M268.5 166V2" stroke="#E6EBF0"/>
<path d="M233.5 166V2" stroke="#E6EBF0"/>
<path d="M31 85.5H269" stroke="#E6EBF0"/>
<path d="M31 126.5H269" stroke="#E6EBF0"/>
<path d="M31 146.5C37.8333 132.833 56.6 99.4 91 91C134 80.5 167 110.5 196 82C225 53.5 217 10.5 268 13" stroke="#FFD02C" stroke-width="5"/>
</svg>
